<svg width="64" height="64" viewBox="0 0 64 64" fill="none" xmlns="http://www.w3.org/2000/svg">
<path fill-rule="evenodd" clip-rule="evenodd" d="M39.1361 55.5883C39.465 55.3796 39.8239 55.2217 40.1966 55.1085C51.7511 51.5987 60.1601 40.8614 60.1601 28.16C60.1601 12.6077 47.5524 0 32.0001 0C16.4477 0 3.84009 12.6077 3.84009 28.16C3.84009 39.2392 10.2383 48.824 19.5413 53.421C19.5518 53.4262 19.5475 53.4421 19.5358 53.4412C19.5283 53.4406 19.5226 53.4478 19.5248 53.455L21.7939 60.6403C22.5848 63.1449 25.5339 64.2205 27.7515 62.8131L39.1361 55.5883Z" fill="#C81912"/>
<path d="M41.8134 20.6379C42.6418 19.8095 42.6418 18.4664 41.8134 17.638L41.362 17.1865C40.5336 16.3581 39.1904 16.3581 38.362 17.1865L32 23.5486L25.6379 17.1865C24.8095 16.3581 23.4664 16.3581 22.638 17.1865L22.1865 17.638C21.3581 18.4664 21.3581 19.8095 22.1865 20.6379L28.5486 27L22.1865 33.3621C21.3581 34.1905 21.3581 35.5336 22.1865 36.362L22.638 36.8135C23.4664 37.6419 24.8095 37.6419 25.6379 36.8135L32 30.4514L38.362 36.8135C39.1904 37.6419 40.5336 37.6419 41.362 36.8135L41.8134 36.362C42.6419 35.5336 42.6418 34.1905 41.8134 33.3621L35.4514 27L41.8134 20.6379Z" fill="white"/>
</svg>
