<svg width="16" height="18" viewBox="0 0 16 18" fill="none" xmlns="http://www.w3.org/2000/svg">
<path opacity="0.4" d="M13.6741 6.51758C13.2978 6.51758 12.7995 6.50925 12.179 6.50925C10.6657 6.50925 9.42137 5.25675 9.42137 3.72925V1.04925C9.42137 0.838415 9.25304 0.666748 9.04428 0.666748H4.63644C2.57939 0.666748 0.916748 2.35508 0.916748 4.42425V13.4034C0.916748 15.5742 2.6586 17.3334 4.80806 17.3334H11.372C13.4216 17.3334 15.0834 15.6559 15.0834 13.5851V6.89258C15.0834 6.68092 14.9159 6.51008 14.7063 6.51091C14.354 6.51341 13.9315 6.51758 13.6741 6.51758Z" fill="#8A8A8A"/>
<path opacity="0.4" d="M11.4034 1.13947C11.1542 0.880308 10.7192 1.05864 10.7192 1.41781V3.61531C10.7192 4.53698 11.4784 5.29531 12.4001 5.29531C12.9809 5.30198 13.7876 5.30364 14.4726 5.30198C14.8234 5.30114 15.0017 4.88198 14.7584 4.62864C13.8792 3.71448 12.3051 2.07614 11.4034 1.13947Z" fill="#8A8A8A"/>
<path fill-rule="evenodd" clip-rule="evenodd" d="M5.4784 8.48986H8.29923C8.64173 8.48986 8.92007 8.21236 8.92007 7.86986C8.92007 7.52736 8.64173 7.24902 8.29923 7.24902H5.4784C5.1359 7.24902 4.8584 7.52736 4.8584 7.86986C4.8584 8.21236 5.1359 8.48986 5.4784 8.48986ZM5.47848 12.6517H10.0151C10.3576 12.6517 10.636 12.3742 10.636 12.0317C10.636 11.6892 10.3576 11.4109 10.0151 11.4109H5.47848C5.13598 11.4109 4.85848 11.6892 4.85848 12.0317C4.85848 12.3742 5.13598 12.6517 5.47848 12.6517Z" fill="#8A8A8A"/>
</svg>
