<svg width="28" height="24" viewBox="0 0 28 24" fill="none" xmlns="http://www.w3.org/2000/svg">
<path opacity="0.4" d="M21.2534 4.31521L21.1201 4.0222C20.7601 3.26304 20.3467 2.38402 20.0934 1.87791C19.4801 0.679245 18.4267 0.0133185 17.1334 0H10.8534C9.56008 0.0133185 8.52008 0.679245 7.90675 1.87791C7.64008 2.41066 7.18675 3.36959 6.81342 4.15538L6.73342 4.31521C6.69342 4.42175 6.58675 4.47503 6.48008 4.47503C3.26675 4.47503 0.666748 7.08546 0.666748 10.2819V18.1931C0.666748 21.3896 3.26675 24 6.48008 24H21.5201C24.7201 24 27.3334 21.3896 27.3334 18.1931V10.2819C27.3334 7.08546 24.7201 4.47503 21.5201 4.47503C21.4001 4.47503 21.3067 4.40844 21.2534 4.31521Z" fill="#8A8A8A"/>
</svg>
