<svg width="20" height="20" viewBox="0 0 20 20" fill="none" xmlns="http://www.w3.org/2000/svg">
<path opacity="0.4" d="M10.0167 1.66675C5.17508 1.66675 1.66675 5.61675 1.66675 10.0001C1.66675 11.4001 2.07508 12.8417 2.79175 14.1584C2.92508 14.3751 2.94175 14.6501 2.85008 14.9084L2.29175 16.7751C2.16675 17.2251 2.55008 17.5584 2.97508 17.4251L4.65841 16.9251C5.11675 16.7751 5.47508 16.9667 5.90091 17.2251C7.11758 17.9417 8.63342 18.3084 10.0001 18.3084C14.1334 18.3084 18.3334 15.1167 18.3334 9.97508C18.3334 5.54175 14.7501 1.66675 10.0167 1.66675Z" fill="#8A8A8A"/>
<path fill-rule="evenodd" clip-rule="evenodd" d="M9.98386 11.0751C9.3922 11.0668 8.9172 10.5918 8.9172 10.0001C8.9172 9.41676 9.40053 8.93342 9.98386 8.94176C10.5755 8.94176 11.0505 9.41676 11.0505 10.0084C11.0505 10.5918 10.5755 11.0751 9.98386 11.0751ZM6.14186 11.0751C5.55853 11.0751 5.0752 10.5918 5.0752 10.0084C5.0752 9.41678 5.5502 8.94178 6.14186 8.94178C6.73353 8.94178 7.20853 9.41678 7.20853 10.0084C7.20853 10.5918 6.73353 11.0668 6.14186 11.0751ZM12.7587 10.0084C12.7587 10.5918 13.2337 11.0751 13.8254 11.0751C14.417 11.0751 14.892 10.5918 14.892 10.0084C14.892 9.41676 14.417 8.94176 13.8254 8.94176C13.2337 8.94176 12.7587 9.41676 12.7587 10.0084Z" fill="#8A8A8A"/>
</svg>
