<svg width="52" height="52" viewBox="0 0 52 52" fill="none" xmlns="http://www.w3.org/2000/svg">
<rect width="52" height="52" rx="2" fill="#585CC6"/>
<path opacity="0.4" d="M31.9944 31.215H27.7237C27.307 31.215 26.9682 31.5592 26.9682 31.9825C26.9682 32.4066 27.307 32.75 27.7237 32.75H31.9944C32.4111 32.75 32.75 32.4066 32.75 31.9825C32.75 31.5592 32.4111 31.215 31.9944 31.215Z" fill="white"/>
<path d="M24.7318 22.1779L28.7787 25.448C28.8763 25.5262 28.893 25.6697 28.8168 25.7696L24.0191 32.0211C23.7175 32.4073 23.273 32.6258 22.7968 32.6339L20.1777 32.6661C20.038 32.6677 19.9158 32.571 19.8841 32.4323L19.2888 29.8443C19.1856 29.3687 19.2888 28.8769 19.5904 28.4979L24.4119 22.2166C24.4897 22.1158 24.6334 22.0981 24.7318 22.1779Z" fill="white"/>
<path opacity="0.4" d="M30.5904 23.4991L29.8103 24.473C29.7317 24.5722 29.5904 24.5883 29.4928 24.5093C28.5444 23.7418 26.1158 21.7721 25.4419 21.2263C25.3435 21.1457 25.33 21.0022 25.4094 20.9022L26.1618 19.9678C26.8443 19.089 28.0348 19.0084 28.9952 19.7743L30.0984 20.6531C30.5508 21.0078 30.8523 21.4754 30.9555 21.9672C31.0746 22.5082 30.9476 23.0395 30.5904 23.4991Z" fill="white"/>
</svg>
